ISO-10303-21;
HEADER;
FILE_DESCRIPTION(('FreeCAD Model'),'2;1');
FILE_NAME('Open CASCADE Shape Model','2026-08-17T14:21:57',('Author'),(
    ''),'Open CASCADE STEP processor 7.6','FreeCAD','Unknown');
FILE_SCHEMA(('AUTOMOTIVE_DESIGN { 1 0 10303 214 1 1 1 1 }'));
ENDSEC;
DATA;
#1 = APPLICATION_PROTOCOL_DEFINITION('international standard',
  'automotive_design',2000,#2);
#2 = APPLICATION_CONTEXT(
  'core data for automotive mechanical design processes');
#3 = SHAPE_DEFINITION_REPRESENTATION(#4,#10);
#4 = PRODUCT_DEFINITION_SHAPE('','',#5);
#5 = PRODUCT_DEFINITION('design','',#6,#9);
#6 = PRODUCT_DEFINITION_FORMATION('','',#7);
#7 = PRODUCT('Cut','Cut','',(#8));
#8 = PRODUCT_CONTEXT('',#2,'mechanical');
#9 = PRODUCT_DEFINITION_CONTEXT('part definition',#2,'design');
#10 = ADVANCED_BREP_SHAPE_REPRESENTATION('',(#11,#15),#250);
#11 = AXIS2_PLACEMENT_3D('',#12,#13,#14);
#12 = CARTESIAN_POINT('',(0.,0.,0.));
#13 = DIRECTION('',(0.,0.,1.));
#14 = DIRECTION('',(1.,0.,-0.));
#15 = MANIFOLD_SOLID_BREP('',#16);
#16 = CLOSED_SHELL('',(#17,#242,#246));
#17 = ADVANCED_FACE('',(#18),#33,.T.);
#18 = FACE_BOUND('',#19,.F.);
#19 = EDGE_LOOP('',(#20,#51,#146,#147));
#20 = ORIENTED_EDGE('',*,*,#21,.T.);
#21 = EDGE_CURVE('',#22,#24,#26,.T.);
#22 = VERTEX_POINT('',#23);
#23 = CARTESIAN_POINT('',(-0.5,54.747716847372,-3.061616997868E-17));
#24 = VERTEX_POINT('',#25);
#25 = CARTESIAN_POINT('',(0.5,54.747716847372,-3.061616997868E-17));
#26 = SEAM_CURVE('',#27,(#32,#44),.PCURVE_S1.);
#27 = CIRCLE('',#28,54.75);
#28 = AXIS2_PLACEMENT_3D('',#29,#30,#31);
#29 = CARTESIAN_POINT('',(0.,0.,-3.061616997868E-17));
#30 = DIRECTION('',(0.,-0.,1.));
#31 = DIRECTION('',(2.22044604925E-16,1.,0.));
#32 = PCURVE('',#33,#38);
#33 = TOROIDAL_SURFACE('',#34,55.,0.25);
#34 = AXIS2_PLACEMENT_3D('',#35,#36,#37);
#35 = CARTESIAN_POINT('',(0.,0.,0.));
#36 = DIRECTION('',(0.,-0.,-1.));
#37 = DIRECTION('',(2.22044604925E-16,1.,0.));
#38 = DEFINITIONAL_REPRESENTATION('',(#39),#43);
#39 = LINE('',#40,#41);
#40 = CARTESIAN_POINT('',(-0.,9.424777960769));
#41 = VECTOR('',#42,1.);
#42 = DIRECTION('',(-1.,0.));
#43 = ( GEOMETRIC_REPRESENTATION_CONTEXT(2) 
PARAMETRIC_REPRESENTATION_CONTEXT() REPRESENTATION_CONTEXT('2D SPACE',''
  ) );
#44 = PCURVE('',#33,#45);
#45 = DEFINITIONAL_REPRESENTATION('',(#46),#50);
#46 = LINE('',#47,#48);
#47 = CARTESIAN_POINT('',(-0.,3.14159265359));
#48 = VECTOR('',#49,1.);
#49 = DIRECTION('',(-1.,0.));
#50 = ( GEOMETRIC_REPRESENTATION_CONTEXT(2) 
PARAMETRIC_REPRESENTATION_CONTEXT() REPRESENTATION_CONTEXT('2D SPACE',''
  ) );
#51 = ORIENTED_EDGE('',*,*,#52,.T.);
#52 = EDGE_CURVE('',#24,#24,#53,.T.);
#53 = SURFACE_CURVE('',#54,(#81,#111),.PCURVE_S1.);
#54 = B_SPLINE_CURVE_WITH_KNOTS('',7,(#55,#56,#57,#58,#59,#60,#61,#62,
    #63,#64,#65,#66,#67,#68,#69,#70,#71,#72,#73,#74,#75,#76,#77,#78,#79,
    #80),.UNSPECIFIED.,.T.,.F.,(8,6,6,6,8),(0.,0.251632517845,
    0.500950026449,0.750365756788,1.),.UNSPECIFIED.);
#55 = CARTESIAN_POINT('',(0.5,54.747716847372,0.));
#56 = CARTESIAN_POINT('',(0.5,54.747716847372,5.645343215449E-02));
#57 = CARTESIAN_POINT('',(0.5,54.76258927793,0.112952958317));
#58 = CARTESIAN_POINT('',(0.5,54.792383530818,0.164709152246));
#59 = CARTESIAN_POINT('',(0.5,54.835128351453,0.207015509263));
#60 = CARTESIAN_POINT('',(0.5,54.887189794165,0.236275464463));
#61 = CARTESIAN_POINT('',(0.5,54.943841225778,0.250566384253));
#62 = CARTESIAN_POINT('',(0.5,55.056227158959,0.249412598428));
#63 = CARTESIAN_POINT('',(0.5,55.112054522457,0.234239293894));
#64 = CARTESIAN_POINT('',(0.5,55.163119004704,0.204468105391));
#65 = CARTESIAN_POINT('',(0.5,55.204862545063,0.162042895822));
#66 = CARTESIAN_POINT('',(0.5,55.233801878972,0.110503713195));
#67 = CARTESIAN_POINT('',(0.5,55.248067235056,5.44394606343E-02));
#68 = CARTESIAN_POINT('',(0.5,55.247398729919,-5.744870150081E-02));
#69 = CARTESIAN_POINT('',(0.5,55.232452838634,-0.11336055992));
#70 = CARTESIAN_POINT('',(0.5,55.202876504172,-0.164566780823));
#71 = CARTESIAN_POINT('',(0.5,55.160597326689,-0.206495733465));
#72 = CARTESIAN_POINT('',(0.5,55.109146067612,-0.235645994459));
#73 = CARTESIAN_POINT('',(0.5,55.053110284846,-0.250128045979));
#74 = CARTESIAN_POINT('',(0.5,54.941145017303,-0.249870518581));
#75 = CARTESIAN_POINT('',(0.5,54.885127276398,-0.235105127863));
#76 = CARTESIAN_POINT('',(0.5,54.833773781927,-0.205666934186));
#77 = CARTESIAN_POINT('',(0.5,54.791675405952,-0.163473476711));
#78 = CARTESIAN_POINT('',(0.5,54.762354038297,-0.112054492252));
#79 = CARTESIAN_POINT('',(0.5,54.747716847372,-5.600511984982E-02));
#80 = CARTESIAN_POINT('',(0.5,54.747716847372,0.));
#81 = PCURVE('',#33,#82);
#82 = DEFINITIONAL_REPRESENTATION('',(#83),#110);
#83 = B_SPLINE_CURVE_WITH_KNOTS('',7,(#84,#85,#86,#87,#88,#89,#90,#91,
    #92,#93,#94,#95,#96,#97,#98,#99,#100,#101,#102,#103,#104,#105,#106,
    #107,#108,#109),.UNSPECIFIED.,.F.,.F.,(8,6,6,6,8),(0.,0.251632517845
    ,0.500950026449,0.750365756788,1.),.UNSPECIFIED.);
#84 = CARTESIAN_POINT('',(-6.274052760141,3.14159265359));
#85 = CARTESIAN_POINT('',(-6.274052760141,3.367406382208));
#86 = CARTESIAN_POINT('',(-6.274055240898,3.593402180539));
#87 = CARTESIAN_POINT('',(-6.274060210623,3.819245547664));
#88 = CARTESIAN_POINT('',(-6.274067332166,4.045003876622));
#89 = CARTESIAN_POINT('',(-6.274075981592,4.270846925894));
#90 = CARTESIAN_POINT('',(-6.274085366939,4.496842166866));
#91 = CARTESIAN_POINT('',(-6.274103941393,4.946391015292));
#92 = CARTESIAN_POINT('',(-6.27411314626,5.170300458806));
#93 = CARTESIAN_POINT('',(-6.274121542268,5.394065011805));
#94 = CARTESIAN_POINT('',(-6.274128387199,5.617748647347));
#95 = CARTESIAN_POINT('',(-6.274133127285,5.841513517367));
#96 = CARTESIAN_POINT('',(-6.2741354639,6.065423507175));
#97 = CARTESIAN_POINT('',(-6.274135354401,6.512984143308));
#98 = CARTESIAN_POINT('',(-6.274132906315,6.736982611095));
#99 = CARTESIAN_POINT('',(-6.274128061652,6.960835654038));
#100 = CARTESIAN_POINT('',(-6.274121128231,7.184607306333));
#101 = CARTESIAN_POINT('',(-6.27411266763,7.408460040159));
#102 = CARTESIAN_POINT('',(-6.274103427282,7.632457962204));
#103 = CARTESIAN_POINT('',(-6.274084920239,8.080301709656));
#104 = CARTESIAN_POINT('',(-6.274075638915,8.304496501014));
#105 = CARTESIAN_POINT('',(-6.274067106486,8.528545417251));
#106 = CARTESIAN_POINT('',(-6.274060092506,8.752512903875));
#107 = CARTESIAN_POINT('',(-6.27405520166,8.976562139667));
#108 = CARTESIAN_POINT('',(-6.274052760141,9.20075748137));
#109 = CARTESIAN_POINT('',(-6.274052760141,9.424777960769));
#110 = ( GEOMETRIC_REPRESENTATION_CONTEXT(2) 
PARAMETRIC_REPRESENTATION_CONTEXT() REPRESENTATION_CONTEXT('2D SPACE',''
  ) );
#111 = PCURVE('',#112,#117);
#112 = PLANE('',#113);
#113 = AXIS2_PLACEMENT_3D('',#114,#115,#116);
#114 = CARTESIAN_POINT('',(0.5,53.5,-1.));
#115 = DIRECTION('',(1.,0.,0.));
#116 = DIRECTION('',(0.,0.,1.));
#117 = DEFINITIONAL_REPRESENTATION('',(#118),#145);
#118 = B_SPLINE_CURVE_WITH_KNOTS('',7,(#119,#120,#121,#122,#123,#124,
    #125,#126,#127,#128,#129,#130,#131,#132,#133,#134,#135,#136,#137,
    #138,#139,#140,#141,#142,#143,#144),.UNSPECIFIED.,.T.,.F.,(8,6,6,6,8
    ),(0.,0.251632517845,0.500950026449,0.750365756788,1.),
  .UNSPECIFIED.);
#119 = CARTESIAN_POINT('',(1.,-1.247716847372));
#120 = CARTESIAN_POINT('',(1.056453432154,-1.247716847372));
#121 = CARTESIAN_POINT('',(1.112952958317,-1.26258927793));
#122 = CARTESIAN_POINT('',(1.164709152246,-1.292383530818));
#123 = CARTESIAN_POINT('',(1.207015509263,-1.335128351453));
#124 = CARTESIAN_POINT('',(1.236275464463,-1.387189794165));
#125 = CARTESIAN_POINT('',(1.250566384253,-1.443841225778));
#126 = CARTESIAN_POINT('',(1.249412598428,-1.556227158959));
#127 = CARTESIAN_POINT('',(1.234239293894,-1.612054522457));
#128 = CARTESIAN_POINT('',(1.204468105391,-1.663119004704));
#129 = CARTESIAN_POINT('',(1.162042895822,-1.704862545063));
#130 = CARTESIAN_POINT('',(1.110503713195,-1.733801878972));
#131 = CARTESIAN_POINT('',(1.054439460634,-1.748067235056));
#132 = CARTESIAN_POINT('',(0.942551298499,-1.747398729919));
#133 = CARTESIAN_POINT('',(0.88663944008,-1.732452838634));
#134 = CARTESIAN_POINT('',(0.835433219177,-1.702876504172));
#135 = CARTESIAN_POINT('',(0.793504266535,-1.660597326689));
#136 = CARTESIAN_POINT('',(0.764354005541,-1.609146067612));
#137 = CARTESIAN_POINT('',(0.749871954021,-1.553110284846));
#138 = CARTESIAN_POINT('',(0.750129481419,-1.441145017303));
#139 = CARTESIAN_POINT('',(0.764894872137,-1.385127276398));
#140 = CARTESIAN_POINT('',(0.794333065814,-1.333773781927));
#141 = CARTESIAN_POINT('',(0.836526523289,-1.291675405952));
#142 = CARTESIAN_POINT('',(0.887945507748,-1.262354038297));
#143 = CARTESIAN_POINT('',(0.94399488015,-1.247716847372));
#144 = CARTESIAN_POINT('',(1.,-1.247716847372));
#145 = ( GEOMETRIC_REPRESENTATION_CONTEXT(2) 
PARAMETRIC_REPRESENTATION_CONTEXT() REPRESENTATION_CONTEXT('2D SPACE',''
  ) );
#146 = ORIENTED_EDGE('',*,*,#21,.F.);
#147 = ORIENTED_EDGE('',*,*,#148,.F.);
#148 = EDGE_CURVE('',#22,#22,#149,.T.);
#149 = SURFACE_CURVE('',#150,(#177,#207),.PCURVE_S1.);
#150 = B_SPLINE_CURVE_WITH_KNOTS('',7,(#151,#152,#153,#154,#155,#156,
    #157,#158,#159,#160,#161,#162,#163,#164,#165,#166,#167,#168,#169,
    #170,#171,#172,#173,#174,#175,#176),.UNSPECIFIED.,.T.,.F.,(8,6,6,6,8
    ),(0.,0.251632517799,0.500950026208,0.75036575395,1.),
  .UNSPECIFIED.);
#151 = CARTESIAN_POINT('',(-0.5,54.747716847372,0.));
#152 = CARTESIAN_POINT('',(-0.5,54.747716847372,5.645343214405E-02));
#153 = CARTESIAN_POINT('',(-0.5,54.762589277924,0.112952958296));
#154 = CARTESIAN_POINT('',(-0.5,54.792383530801,0.164709152217));
#155 = CARTESIAN_POINT('',(-0.5,54.83512835142,0.207015509232));
#156 = CARTESIAN_POINT('',(-0.5,54.887189794117,0.236275464435));
#157 = CARTESIAN_POINT('',(-0.5,54.943841225715,0.250566384237));
#158 = CARTESIAN_POINT('',(-0.5,55.056227158842,0.249412598446));
#159 = CARTESIAN_POINT('',(-0.5,55.112054522301,0.234239293951));
#160 = CARTESIAN_POINT('',(-0.5,55.163119004524,0.20446810551));
#161 = CARTESIAN_POINT('',(-0.5,55.204862544886,0.162042896015));
#162 = CARTESIAN_POINT('',(-0.5,55.233801878826,0.110503713466));
#163 = CARTESIAN_POINT('',(-0.5,55.248067234973,5.443946097081E-02));
#164 = CARTESIAN_POINT('',(-0.5,55.24739873001,-5.744870053883E-02));
#165 = CARTESIAN_POINT('',(-0.5,55.232452839117,-0.113360558399));
#166 = CARTESIAN_POINT('',(-0.5,55.202876505348,-0.164566778909));
#167 = CARTESIAN_POINT('',(-0.5,55.160597328764,-0.206495731471));
#168 = CARTESIAN_POINT('',(-0.5,55.10914607065,-0.235645992772));
#169 = CARTESIAN_POINT('',(-0.5,55.053110288727,-0.25012804499));
#170 = CARTESIAN_POINT('',(-0.5,54.941145021126,-0.24987051959));
#171 = CARTESIAN_POINT('',(-0.5,54.885127279318,-0.235105129537));
#172 = CARTESIAN_POINT('',(-0.5,54.833773783843,-0.205666936106));
#173 = CARTESIAN_POINT('',(-0.5,54.791675406954,-0.163473478466));
#174 = CARTESIAN_POINT('',(-0.5,54.762354038629,-0.112054493528));
#175 = CARTESIAN_POINT('',(-0.5,54.747716847372,-5.600512048634E-02));
#176 = CARTESIAN_POINT('',(-0.5,54.747716847372,0.));
#177 = PCURVE('',#33,#178);
#178 = DEFINITIONAL_REPRESENTATION('',(#179),#206);
#179 = B_SPLINE_CURVE_WITH_KNOTS('',7,(#180,#181,#182,#183,#184,#185,
    #186,#187,#188,#189,#190,#191,#192,#193,#194,#195,#196,#197,#198,
    #199,#200,#201,#202,#203,#204,#205),.UNSPECIFIED.,.F.,.F.,(8,6,6,6,8
    ),(0.,0.251632517799,0.500950026208,0.75036575395,1.),
  .UNSPECIFIED.);
#180 = CARTESIAN_POINT('',(-9.132547038397E-03,3.14159265359));
#181 = CARTESIAN_POINT('',(-9.132547038397E-03,3.367406382166));
#182 = CARTESIAN_POINT('',(-9.130066281736E-03,3.593402180453));
#183 = CARTESIAN_POINT('',(-9.125096556788E-03,3.819245547541));
#184 = CARTESIAN_POINT('',(-9.117975013954E-03,4.045003876451));
#185 = CARTESIAN_POINT('',(-9.109325588003E-03,4.270846925685));
#186 = CARTESIAN_POINT('',(-9.099940240573E-03,4.496842166613));
#187 = CARTESIAN_POINT('',(-9.081365786851E-03,4.946391014821));
#188 = CARTESIAN_POINT('',(-9.072160919471E-03,5.170300458164));
#189 = CARTESIAN_POINT('',(-9.063764911703E-03,5.39406501098));
#190 = CARTESIAN_POINT('',(-9.056919980443E-03,5.617748646357));
#191 = CARTESIAN_POINT('',(-9.052179895099E-03,5.841513516196));
#192 = CARTESIAN_POINT('',(-9.049843279346E-03,6.06542350583));
#193 = CARTESIAN_POINT('',(-9.049952778344E-03,6.512984139458));
#194 = CARTESIAN_POINT('',(-9.052400864188E-03,6.73698260491));
#195 = CARTESIAN_POINT('',(-9.057245527742E-03,6.960835645512));
#196 = CARTESIAN_POINT('',(-9.064178948029E-03,7.184607295494));
#197 = CARTESIAN_POINT('',(-9.072639549402E-03,7.408460026978));
#198 = CARTESIAN_POINT('',(-9.081879897003E-03,7.63245794669));
#199 = CARTESIAN_POINT('',(-9.100386939791E-03,8.080301694358));
#200 = CARTESIAN_POINT('',(-9.109668264373E-03,8.304496488271));
#201 = CARTESIAN_POINT('',(-9.118200693723E-03,8.528545407059));
#202 = CARTESIAN_POINT('',(-9.125214673844E-03,8.752512896223));
#203 = CARTESIAN_POINT('',(-9.130105519949E-03,8.976562134563));
#204 = CARTESIAN_POINT('',(-9.132547038398E-03,9.200757478824));
#205 = CARTESIAN_POINT('',(-9.132547038398E-03,9.424777960769));
#206 = ( GEOMETRIC_REPRESENTATION_CONTEXT(2) 
PARAMETRIC_REPRESENTATION_CONTEXT() REPRESENTATION_CONTEXT('2D SPACE',''
  ) );
#207 = PCURVE('',#208,#213);
#208 = PLANE('',#209);
#209 = AXIS2_PLACEMENT_3D('',#210,#211,#212);
#210 = CARTESIAN_POINT('',(-0.5,53.5,-1.));
#211 = DIRECTION('',(1.,0.,0.));
#212 = DIRECTION('',(0.,0.,1.));
#213 = DEFINITIONAL_REPRESENTATION('',(#214),#241);
#214 = B_SPLINE_CURVE_WITH_KNOTS('',7,(#215,#216,#217,#218,#219,#220,
    #221,#222,#223,#224,#225,#226,#227,#228,#229,#230,#231,#232,#233,
    #234,#235,#236,#237,#238,#239,#240),.UNSPECIFIED.,.T.,.F.,(8,6,6,6,8
    ),(0.,0.251632517799,0.500950026208,0.75036575395,1.),
  .UNSPECIFIED.);
#215 = CARTESIAN_POINT('',(1.,-1.247716847372));
#216 = CARTESIAN_POINT('',(1.056453432144,-1.247716847372));
#217 = CARTESIAN_POINT('',(1.112952958296,-1.262589277924));
#218 = CARTESIAN_POINT('',(1.164709152217,-1.292383530801));
#219 = CARTESIAN_POINT('',(1.207015509232,-1.33512835142));
#220 = CARTESIAN_POINT('',(1.236275464435,-1.387189794117));
#221 = CARTESIAN_POINT('',(1.250566384237,-1.443841225715));
#222 = CARTESIAN_POINT('',(1.249412598446,-1.556227158842));
#223 = CARTESIAN_POINT('',(1.234239293951,-1.612054522301));
#224 = CARTESIAN_POINT('',(1.20446810551,-1.663119004524));
#225 = CARTESIAN_POINT('',(1.162042896015,-1.704862544886));
#226 = CARTESIAN_POINT('',(1.110503713466,-1.733801878826));
#227 = CARTESIAN_POINT('',(1.054439460971,-1.748067234973));
#228 = CARTESIAN_POINT('',(0.942551299461,-1.74739873001));
#229 = CARTESIAN_POINT('',(0.886639441601,-1.732452839117));
#230 = CARTESIAN_POINT('',(0.835433221091,-1.702876505348));
#231 = CARTESIAN_POINT('',(0.793504268529,-1.660597328764));
#232 = CARTESIAN_POINT('',(0.764354007228,-1.60914607065));
#233 = CARTESIAN_POINT('',(0.74987195501,-1.553110288727));
#234 = CARTESIAN_POINT('',(0.75012948041,-1.441145021126));
#235 = CARTESIAN_POINT('',(0.764894870463,-1.385127279318));
#236 = CARTESIAN_POINT('',(0.794333063894,-1.333773783843));
#237 = CARTESIAN_POINT('',(0.836526521534,-1.291675406954));
#238 = CARTESIAN_POINT('',(0.887945506472,-1.262354038629));
#239 = CARTESIAN_POINT('',(0.943994879514,-1.247716847372));
#240 = CARTESIAN_POINT('',(1.,-1.247716847372));
#241 = ( GEOMETRIC_REPRESENTATION_CONTEXT(2) 
PARAMETRIC_REPRESENTATION_CONTEXT() REPRESENTATION_CONTEXT('2D SPACE',''
  ) );
#242 = ADVANCED_FACE('',(#243),#208,.T.);
#243 = FACE_BOUND('',#244,.T.);
#244 = EDGE_LOOP('',(#245));
#245 = ORIENTED_EDGE('',*,*,#148,.F.);
#246 = ADVANCED_FACE('',(#247),#112,.F.);
#247 = FACE_BOUND('',#248,.F.);
#248 = EDGE_LOOP('',(#249));
#249 = ORIENTED_EDGE('',*,*,#52,.F.);
#250 = ( GEOMETRIC_REPRESENTATION_CONTEXT(3) 
GLOBAL_UNCERTAINTY_ASSIGNED_CONTEXT((#254)) GLOBAL_UNIT_ASSIGNED_CONTEXT
((#251,#252,#253)) REPRESENTATION_CONTEXT('Context #1',
  '3D Context with UNIT and UNCERTAINTY') );
#251 = ( LENGTH_UNIT() NAMED_UNIT(*) SI_UNIT(.MILLI.,.METRE.) );
#252 = ( NAMED_UNIT(*) PLANE_ANGLE_UNIT() SI_UNIT($,.RADIAN.) );
#253 = ( NAMED_UNIT(*) SI_UNIT($,.STERADIAN.) SOLID_ANGLE_UNIT() );
#254 = UNCERTAINTY_MEASURE_WITH_UNIT(LENGTH_MEASURE(1.E-06),#251,
  'distance_accuracy_value','confusion accuracy');
#255 = PRODUCT_RELATED_PRODUCT_CATEGORY('part',$,(#7));
#256 = MECHANICAL_DESIGN_GEOMETRIC_PRESENTATION_REPRESENTATION('',(#257)
  ,#250);
#257 = STYLED_ITEM('color',(#258),#15);
#258 = PRESENTATION_STYLE_ASSIGNMENT((#259,#265));
#259 = SURFACE_STYLE_USAGE(.BOTH.,#260);
#260 = SURFACE_SIDE_STYLE('',(#261));
#261 = SURFACE_STYLE_FILL_AREA(#262);
#262 = FILL_AREA_STYLE('',(#263));
#263 = FILL_AREA_STYLE_COLOUR('',#264);
#264 = COLOUR_RGB('',0.678431390124,0.709803936702,0.741176476869);
#265 = CURVE_STYLE('',#266,POSITIVE_LENGTH_MEASURE(0.1),#267);
#266 = DRAUGHTING_PRE_DEFINED_CURVE_FONT('continuous');
#267 = COLOUR_RGB('',9.803921802644E-02,9.803921802644E-02,
  9.803921802644E-02);
ENDSEC;
END-ISO-10303-21;
